<svg width="74" height="71" viewBox="0 0 74 71" fill="none" xmlns="http://www.w3.org/2000/svg">
<path d="M20.0716 59.6326C20.058 60.5159 18.9893 60.949 18.3646 60.3242L0.707096 42.6667C0.316572 42.2762 0.316572 41.643 0.707096 41.2525L18.9184 23.0412C19.5537 22.4059 20.6393 22.8654 20.6254 23.7637L20.0716 59.6326ZM49.1757 56.6184C49.1717 56.8783 49.0667 57.1264 48.8829 57.3101L35.8837 70.3094C35.2484 70.9446 34.1628 70.4851 34.1767 69.5868L34.6439 39.3163C34.6557 38.5512 35.4874 38.0823 36.1481 38.4682L48.832 45.8765C49.1437 46.0585 49.3331 46.3945 49.3276 46.7554L49.1757 56.6184ZM49.5314 33.5288C49.5196 34.2939 48.688 34.7628 48.0272 34.3769L35.3434 26.9686C35.0317 26.7866 34.8423 26.4506 34.8478 26.0897L35.1392 7.21934C35.1432 6.9595 35.2482 6.71143 35.4319 6.52767L41.2525 0.707107C41.643 0.316583 42.2762 0.316583 42.6667 0.707107L49.6263 7.6667C49.8176 7.85802 49.9232 8.11869 49.9191 8.38922L49.5314 33.5288ZM65.3963 40.7967C64.7611 41.432 63.6755 40.9725 63.6893 40.0742L63.9312 24.3703C63.9448 23.4869 65.0135 23.0539 65.6382 23.6786L73.3692 31.4096C73.7597 31.8002 73.7597 32.4333 73.3692 32.8238L65.3963 40.7967Z" fill="url(#paint0_linear_146_16)"/>
<defs>
<linearGradient id="paint0_linear_146_16" x1="58.018" y1="16.0584" x2="16.0584" y2="58.018" gradientUnits="userSpaceOnUse">
<stop stop-color="#09C1A3"/>
<stop offset="1" stop-color="#147EAE"/>
</linearGradient>
</defs>
</svg>
